<svg width="28" height="28" viewBox="0 0 28 28" fill="none" xmlns="http://www.w3.org/2000/svg">
<circle cx="14" cy="14" r="14" fill="#414141"/>
<path d="M18.7748 10.4386L14.2485 8.92984C14.1717 8.9062 14.0896 8.9062 14.0127 8.92984L9.49116 10.4386H9.48173L9.43458 10.4622H9.42987L9.38272 10.4905C9.38272 10.4952 9.378 10.4952 9.37329 10.4999L9.33557 10.5329L9.30256 10.5706C9.30256 10.5753 9.29785 10.5753 9.29785 10.5801L9.26956 10.6225C9.26956 10.6272 9.26956 10.6272 9.26484 10.6319L9.24598 10.6743L9.23184 10.7262V10.7404C9.22719 10.7588 9.2256 10.7779 9.22712 10.7969V14.5689C9.22712 14.6689 9.26686 14.7648 9.3376 14.8356C9.40834 14.9063 9.50428 14.946 9.60432 14.946C9.70435 14.946 9.80029 14.9063 9.87103 14.8356C9.94177 14.7648 9.98151 14.6689 9.98151 14.5689V11.3203L11.5657 11.8484C11.2681 12.3247 11.1112 12.8756 11.1131 13.4373C11.1133 13.9481 11.2431 14.4506 11.4905 14.8976C11.7379 15.3445 12.0947 15.7214 12.5276 15.9928C11.6281 16.333 10.8603 16.9506 10.3351 17.7561C10.2816 17.8408 10.2635 17.9431 10.2846 18.041C10.3058 18.1388 10.3646 18.2245 10.4483 18.2795C10.4894 18.3067 10.5354 18.3255 10.5838 18.3348C10.6322 18.3441 10.682 18.3437 10.7302 18.3336C10.7785 18.3235 10.8242 18.3039 10.8649 18.276C10.9055 18.2481 10.9402 18.2124 10.9669 18.171C11.3093 17.6437 11.778 17.2103 12.3306 16.9102C12.8831 16.6102 13.5019 16.453 14.1306 16.453C14.7594 16.453 15.3781 16.6102 15.9307 16.9102C16.4832 17.2103 16.952 17.6437 17.2943 18.171C17.3288 18.2233 17.3757 18.2662 17.4308 18.2958C17.486 18.3255 17.5476 18.3409 17.6102 18.3408C17.6825 18.3415 17.7532 18.3201 17.813 18.2795C17.8967 18.2245 17.9554 18.1388 17.9766 18.041C17.9978 17.9431 17.9796 17.8408 17.9261 17.7561C17.4009 16.9506 16.6331 16.333 15.7337 15.9928C16.1665 15.7214 16.5233 15.3445 16.7707 14.8976C17.0181 14.4506 17.148 13.9481 17.1482 13.4373C17.1501 12.8756 16.9931 12.3247 16.6955 11.8484L18.7748 11.1553C18.8503 11.1305 18.916 11.0825 18.9625 11.0181C19.0091 10.9538 19.0342 10.8764 19.0342 10.7969C19.0342 10.7175 19.0091 10.6401 18.9625 10.5757C18.916 10.5114 18.8503 10.4634 18.7748 10.4386ZM16.3938 13.4373C16.3938 14.0375 16.1553 14.6131 15.7309 15.0376C15.3065 15.462 14.7308 15.7004 14.1306 15.7004C13.5304 15.7004 12.9548 15.462 12.5303 15.0376C12.1059 14.6131 11.8675 14.0375 11.8675 13.4373C11.8684 12.9543 12.0218 12.4841 12.306 12.0935L14.0127 12.664C14.0893 12.6892 14.1719 12.6892 14.2485 12.664L15.9553 12.0935C16.2394 12.4841 16.3929 12.9543 16.3938 13.4373ZM15.9553 11.3014H15.9506L14.1306 11.9097L12.3107 11.3014H12.306L10.7972 10.7969L14.1306 9.68422L17.4641 10.7969L15.9553 11.3014Z" fill="#B5B5B5"/>
</svg>
