<svg width="28" height="29" viewBox="0 0 28 29" fill="none" xmlns="http://www.w3.org/2000/svg">
<circle cx="14" cy="14.0049" r="14" fill="#B5B5B5"/>
<path d="M13.955 13.7316C15.6147 12.2228 16.4696 11.4483 16.4696 10.4676C16.4696 9.71322 15.841 9.11475 15.0866 9.11475C14.6541 9.11475 14.2417 9.2958 13.955 9.61767C13.6683 9.2958 13.2559 9.11475 12.7933 9.11475C12.0389 9.11475 11.4404 9.7434 11.4404 10.4978C11.4404 11.4483 12.2954 12.2228 13.955 13.7316ZM13.5426 14.144C12.0338 12.4843 11.2593 11.6294 10.2786 11.6294C9.52426 11.6294 8.92578 12.258 8.92578 13.0124C8.92578 13.4449 9.10683 13.8573 9.4287 14.144C9.10683 14.4306 8.92578 14.843 8.92578 15.3057C8.92578 16.0601 9.55443 16.6586 10.3088 16.6586C11.2593 16.6586 12.0338 15.8036 13.5426 14.144ZM14.3724 14.144C15.8762 15.8036 16.6507 16.6586 17.6314 16.6586C18.3858 16.6586 18.9842 16.0299 18.9842 15.2755C18.9842 14.843 18.8032 14.4306 18.4813 14.144C18.8032 13.8573 18.9842 13.4449 18.9842 12.9822C18.9842 12.2278 18.3556 11.6294 17.6012 11.6294C16.6507 11.6294 15.8762 12.4843 14.3724 14.144ZM13.955 14.5564C12.2954 16.0651 11.4404 16.8396 11.4404 17.8203C11.4404 18.5747 12.069 19.1732 12.8234 19.1732C13.2559 19.1732 13.6683 18.9921 13.955 18.6703C14.2417 18.9921 14.6541 19.1732 15.1168 19.1732C15.8711 19.1732 16.4696 18.5445 16.4696 17.7902C16.4696 16.8396 15.6147 16.0651 13.955 14.5564Z" fill="#0B292D"/>
</svg>
