<svg width="28" height="28" viewBox="0 0 28 28" fill="none" xmlns="http://www.w3.org/2000/svg">
<circle cx="14" cy="14" r="14" fill="#B5B5B5"/>
<circle cx="14" cy="14" r="14" fill="#414141"/>
<g clip-path="url(#clip0_5758_6137)">
<path d="M18.8457 9.5487C18.716 9.4648 18.5677 9.41404 18.4138 9.40089C18.2599 9.38773 18.1051 9.41259 17.963 9.47326L13.3085 11.3064C13.1983 11.3513 13.0805 11.3743 12.9615 11.3743H9.98166C9.73157 11.3743 9.49172 11.4737 9.31488 11.6505C9.13803 11.8273 9.03868 12.0672 9.03868 12.3173V12.3927H8.0957V14.6559H9.03868V14.7539C9.04459 15.0001 9.14654 15.2342 9.32275 15.4062C9.49896 15.5781 9.73544 15.6744 9.98166 15.6743L11.1132 18.0732C11.1899 18.2348 11.3105 18.3714 11.4613 18.4675C11.6121 18.5636 11.7869 18.6152 11.9657 18.6164H12.441C12.6897 18.6144 12.9277 18.5142 13.1029 18.3375C13.2781 18.1609 13.3764 17.9222 13.3764 17.6734V15.7648L17.963 17.598C18.0759 17.6429 18.1962 17.6659 18.3176 17.6659C18.506 17.6628 18.6894 17.6052 18.8457 17.4999C18.9698 17.4161 19.0721 17.304 19.1442 17.1728C19.2164 17.0416 19.2563 16.8952 19.2606 16.7455V10.3257C19.2599 10.1722 19.2217 10.0212 19.1494 9.88578C19.0771 9.75037 18.9729 9.63466 18.8457 9.5487ZM12.4334 12.3173V14.7539H9.98166V12.3173H12.4334ZM12.4334 17.6734H11.9581L11.0303 15.6743H12.4334V17.6734ZM13.6555 14.8671C13.5659 14.8213 13.4725 14.7835 13.3764 14.7539V12.2645C13.4716 12.2448 13.565 12.2171 13.6555 12.1815L18.3176 10.3257V16.7229L13.6555 14.8671ZM19.2832 12.5813V14.4673C19.5333 14.4673 19.7732 14.3679 19.95 14.1911C20.1268 14.0142 20.2262 13.7744 20.2262 13.5243C20.2262 13.2742 20.1268 13.0344 19.95 12.8575C19.7732 12.6807 19.5333 12.5813 19.2832 12.5813Z" fill="#0B292D"/>
<path d="M18.8457 9.5487C18.716 9.4648 18.5677 9.41404 18.4138 9.40089C18.2599 9.38773 18.1051 9.41259 17.963 9.47326L13.3085 11.3064C13.1983 11.3513 13.0805 11.3743 12.9615 11.3743H9.98166C9.73157 11.3743 9.49172 11.4737 9.31488 11.6505C9.13803 11.8273 9.03868 12.0672 9.03868 12.3173V12.3927H8.0957V14.6559H9.03868V14.7539C9.04459 15.0001 9.14654 15.2342 9.32275 15.4062C9.49896 15.5781 9.73544 15.6744 9.98166 15.6743L11.1132 18.0732C11.1899 18.2348 11.3105 18.3714 11.4613 18.4675C11.6121 18.5636 11.7869 18.6152 11.9657 18.6164H12.441C12.6897 18.6144 12.9277 18.5142 13.1029 18.3375C13.2781 18.1609 13.3764 17.9222 13.3764 17.6734V15.7648L17.963 17.598C18.0759 17.6429 18.1962 17.6659 18.3176 17.6659C18.506 17.6628 18.6894 17.6052 18.8457 17.4999C18.9698 17.4161 19.0721 17.304 19.1442 17.1728C19.2164 17.0416 19.2563 16.8952 19.2606 16.7455V10.3257C19.2599 10.1722 19.2217 10.0212 19.1494 9.88578C19.0771 9.75037 18.9729 9.63466 18.8457 9.5487ZM12.4334 12.3173V14.7539H9.98166V12.3173H12.4334ZM12.4334 17.6734H11.9581L11.0303 15.6743H12.4334V17.6734ZM13.6555 14.8671C13.5659 14.8213 13.4725 14.7835 13.3764 14.7539V12.2645C13.4716 12.2448 13.565 12.2171 13.6555 12.1815L18.3176 10.3257V16.7229L13.6555 14.8671ZM19.2832 12.5813V14.4673C19.5333 14.4673 19.7732 14.3679 19.95 14.1911C20.1268 14.0142 20.2262 13.7744 20.2262 13.5243C20.2262 13.2742 20.1268 13.0344 19.95 12.8575C19.7732 12.6807 19.5333 12.5813 19.2832 12.5813Z" fill="#B5B5B5"/>
</g>
<defs>
<clipPath id="clip0_5758_6137">
<rect width="12.0701" height="12.0701" fill="white" transform="translate(8.0957 7.96484)"/>
</clipPath>
</defs>
</svg>
