<svg width="28" height="28" viewBox="0 0 28 28" fill="none" xmlns="http://www.w3.org/2000/svg">
<circle cx="14" cy="14" r="14" fill="#B5B5B5"/>
<circle cx="14" cy="14" r="14" fill="#414141"/>
<path d="M14.1308 19.2152C11.3531 19.2152 9.10156 16.9636 9.10156 14.186C9.10156 11.4083 11.3531 9.15674 14.1308 9.15674C16.9084 9.15674 19.16 11.4083 19.16 14.186C19.16 16.9636 16.9084 19.2152 14.1308 19.2152ZM14.1308 18.2093C15.1979 18.2093 16.2212 17.7855 16.9757 17.0309C17.7303 16.2764 18.1542 15.253 18.1542 14.186C18.1542 13.1189 17.7303 12.0955 16.9757 11.341C16.2212 10.5865 15.1979 10.1626 14.1308 10.1626C13.0637 10.1626 12.0404 10.5865 11.2858 11.341C10.5313 12.0955 10.1074 13.1189 10.1074 14.186C10.1074 15.253 10.5313 16.2764 11.2858 17.0309C12.0404 17.7855 13.0637 18.2093 14.1308 18.2093ZM12.1191 14.6889H16.1425C16.1425 15.2224 15.9305 15.7341 15.5533 16.1114C15.176 16.4886 14.6643 16.7006 14.1308 16.7006C13.5973 16.7006 13.0856 16.4886 12.7083 16.1114C12.331 15.7341 12.1191 15.2224 12.1191 14.6889ZM12.1191 13.683C11.919 13.683 11.7271 13.6036 11.5857 13.4621C11.4442 13.3206 11.3647 13.1287 11.3647 12.9287C11.3647 12.7286 11.4442 12.5367 11.5857 12.3952C11.7271 12.2538 11.919 12.1743 12.1191 12.1743C12.3192 12.1743 12.5111 12.2538 12.6525 12.3952C12.794 12.5367 12.8735 12.7286 12.8735 12.9287C12.8735 13.1287 12.794 13.3206 12.6525 13.4621C12.5111 13.6036 12.3192 13.683 12.1191 13.683ZM16.1425 13.683C15.9424 13.683 15.7505 13.6036 15.609 13.4621C15.4676 13.3206 15.3881 13.1287 15.3881 12.9287C15.3881 12.7286 15.4676 12.5367 15.609 12.3952C15.7505 12.2538 15.9424 12.1743 16.1425 12.1743C16.3426 12.1743 16.5344 12.2538 16.6759 12.3952C16.8174 12.5367 16.8969 12.7286 16.8969 12.9287C16.8969 13.1287 16.8174 13.3206 16.6759 13.4621C16.5344 13.6036 16.3426 13.683 16.1425 13.683Z" fill="#0B292D"/>
<path d="M14.1308 19.2152C11.3531 19.2152 9.10156 16.9636 9.10156 14.186C9.10156 11.4083 11.3531 9.15674 14.1308 9.15674C16.9084 9.15674 19.16 11.4083 19.16 14.186C19.16 16.9636 16.9084 19.2152 14.1308 19.2152ZM14.1308 18.2093C15.1979 18.2093 16.2212 17.7855 16.9757 17.0309C17.7303 16.2764 18.1542 15.253 18.1542 14.186C18.1542 13.1189 17.7303 12.0955 16.9757 11.341C16.2212 10.5865 15.1979 10.1626 14.1308 10.1626C13.0637 10.1626 12.0404 10.5865 11.2858 11.341C10.5313 12.0955 10.1074 13.1189 10.1074 14.186C10.1074 15.253 10.5313 16.2764 11.2858 17.0309C12.0404 17.7855 13.0637 18.2093 14.1308 18.2093ZM12.1191 14.6889H16.1425C16.1425 15.2224 15.9305 15.7341 15.5533 16.1114C15.176 16.4886 14.6643 16.7006 14.1308 16.7006C13.5973 16.7006 13.0856 16.4886 12.7083 16.1114C12.331 15.7341 12.1191 15.2224 12.1191 14.6889ZM12.1191 13.683C11.919 13.683 11.7271 13.6036 11.5857 13.4621C11.4442 13.3206 11.3647 13.1287 11.3647 12.9287C11.3647 12.7286 11.4442 12.5367 11.5857 12.3952C11.7271 12.2538 11.919 12.1743 12.1191 12.1743C12.3192 12.1743 12.5111 12.2538 12.6525 12.3952C12.794 12.5367 12.8735 12.7286 12.8735 12.9287C12.8735 13.1287 12.794 13.3206 12.6525 13.4621C12.5111 13.6036 12.3192 13.683 12.1191 13.683ZM16.1425 13.683C15.9424 13.683 15.7505 13.6036 15.609 13.4621C15.4676 13.3206 15.3881 13.1287 15.3881 12.9287C15.3881 12.7286 15.4676 12.5367 15.609 12.3952C15.7505 12.2538 15.9424 12.1743 16.1425 12.1743C16.3426 12.1743 16.5344 12.2538 16.6759 12.3952C16.8174 12.5367 16.8969 12.7286 16.8969 12.9287C16.8969 13.1287 16.8174 13.3206 16.6759 13.4621C16.5344 13.6036 16.3426 13.683 16.1425 13.683Z" fill="#B5B5B5"/>
</svg>
