<svg width="28" height="28" viewBox="0 0 28 28" fill="none" xmlns="http://www.w3.org/2000/svg">
<circle cx="14" cy="14" r="14" fill="#414141"/>
<path d="M14.2881 9.18457C12.2736 9.18457 10.6491 10.7609 10.5476 12.7434L9.52165 14.0953C9.3934 14.2609 9.52165 14.5281 9.74608 14.5281H10.5476V16.1312C10.5476 16.7243 11.0232 17.1999 11.6163 17.1999H12.1507V18.803H15.8912V16.2968C17.1576 15.6984 18.0286 14.4213 18.0286 12.9251C18.0286 10.8624 16.3614 9.18457 14.2881 9.18457ZM16.4576 12.6953L15.4102 12.9731L16.1797 13.748C16.2695 13.8381 16.3198 13.9601 16.3198 14.0873C16.3198 14.2145 16.2695 14.3365 16.1797 14.4266C16.0896 14.5163 15.9676 14.5667 15.8404 14.5667C15.7132 14.5667 15.5912 14.5163 15.5011 14.4266L14.7209 13.6571L14.4484 14.7045C14.3843 14.9663 14.1171 15.1159 13.866 15.0464C13.8046 15.0308 13.747 15.0031 13.6965 14.965C13.646 14.9268 13.6035 14.879 13.5717 14.8243C13.5399 14.7696 13.5192 14.709 13.511 14.6463C13.5029 14.5835 13.5072 14.5197 13.524 14.4587L13.8072 13.406L12.7545 13.6892C12.6934 13.7063 12.6296 13.711 12.5667 13.7029C12.5038 13.6949 12.4431 13.6743 12.3883 13.6425C12.3335 13.6106 12.2856 13.568 12.2476 13.5173C12.2095 13.4666 12.182 13.4087 12.1667 13.3472C12.0972 13.0961 12.2469 12.8289 12.5087 12.7648L13.556 12.4922L12.7866 11.7121C12.7062 11.6203 12.6637 11.5013 12.6677 11.3793C12.6718 11.2574 12.722 11.1415 12.8083 11.0552C12.8946 10.9689 13.0105 10.9187 13.1325 10.9146C13.2544 10.9106 13.3734 10.953 13.4652 11.0334L14.24 11.8029L14.5179 10.7556C14.5329 10.6955 14.5596 10.639 14.5964 10.5893C14.6333 10.5396 14.6796 10.4976 14.7327 10.4659C14.7859 10.4341 14.8447 10.4131 14.906 10.4041C14.9672 10.3952 15.0296 10.3984 15.0896 10.4136C15.3568 10.4831 15.5064 10.7449 15.4423 11.0067L15.1591 12.0541L16.2064 11.7708C16.2685 11.7548 16.3332 11.7513 16.3967 11.7603C16.4602 11.7694 16.5213 11.791 16.5764 11.8237C16.6315 11.8565 16.6796 11.8999 16.7179 11.9513C16.7562 12.0028 16.784 12.0613 16.7996 12.1235C16.8148 12.1835 16.818 12.2459 16.809 12.3072C16.8 12.3684 16.7791 12.4273 16.7473 12.4804C16.7155 12.5335 16.6736 12.5799 16.6239 12.6167C16.5741 12.6536 16.5176 12.6803 16.4576 12.6953Z" fill="#B5B5B5"/>
</svg>
