<svg width="28" height="28" viewBox="0 0 28 28" fill="none" xmlns="http://www.w3.org/2000/svg">
<circle cx="14" cy="14" r="14" fill="#B5B5B5"/>
<circle cx="14" cy="14" r="14" fill="#414141"/>
<path d="M14.1308 9.1499C13.4703 9.1499 12.8164 9.27999 12.2062 9.53273C11.596 9.78547 11.0416 10.1559 10.5746 10.6229C9.63143 11.5661 9.10156 12.8453 9.10156 14.1791C9.10156 15.513 9.63143 16.7922 10.5746 17.7353C11.0416 18.2023 11.596 18.5728 12.2062 18.8255C12.8164 19.0783 13.4703 19.2084 14.1308 19.2084C15.4646 19.2084 16.7438 18.6785 17.687 17.7353C18.6301 16.7922 19.16 15.513 19.16 14.1791C19.16 13.5957 19.0544 13.0174 18.8532 12.4742L18.0486 13.2789C18.119 13.5756 18.1542 13.8774 18.1542 14.1791C18.1542 15.2462 17.7303 16.2696 16.9757 17.0241C16.2212 17.7786 15.1979 18.2025 14.1308 18.2025C13.0637 18.2025 12.0404 17.7786 11.2858 17.0241C10.5313 16.2696 10.1074 15.2462 10.1074 14.1791C10.1074 13.1121 10.5313 12.0887 11.2858 11.3342C12.0404 10.5796 13.0637 10.1557 14.1308 10.1557C14.4325 10.1557 14.7343 10.191 15.031 10.2614L15.8407 9.45166C15.2925 9.25552 14.7142 9.1499 14.1308 9.1499ZM17.6512 9.1499L15.6396 11.1616V11.916L14.3571 13.1984C14.2817 13.1733 14.2062 13.1733 14.1308 13.1733C13.864 13.1733 13.6082 13.2793 13.4195 13.4679C13.2309 13.6565 13.1249 13.9124 13.1249 14.1791C13.1249 14.4459 13.2309 14.7017 13.4195 14.8904C13.6082 15.079 13.864 15.185 14.1308 15.185C14.3976 15.185 14.6534 15.079 14.842 14.8904C15.0307 14.7017 15.1366 14.4459 15.1366 14.1791C15.1366 14.1037 15.1366 14.0283 15.1115 13.9528L16.3939 12.6704H17.1483L19.16 10.6587H17.6512V9.1499ZM14.1308 11.1616C13.3305 11.1616 12.563 11.4795 11.9971 12.0454C11.4312 12.6113 11.1133 13.3788 11.1133 14.1791C11.1133 14.9794 11.4312 15.747 11.9971 16.3128C12.563 16.8787 13.3305 17.1967 14.1308 17.1967C14.9311 17.1967 15.6986 16.8787 16.2645 16.3128C16.8304 15.747 17.1483 14.9794 17.1483 14.1791H16.1425C16.1425 14.7127 15.9305 15.2243 15.5533 15.6016C15.176 15.9789 14.6643 16.1908 14.1308 16.1908C13.5973 16.1908 13.0856 15.9789 12.7083 15.6016C12.331 15.2243 12.1191 14.7127 12.1191 14.1791C12.1191 13.6456 12.331 13.1339 12.7083 12.7566C13.0856 12.3794 13.5973 12.1674 14.1308 12.1674V11.1616Z" fill="#B5B5B5"/>
</svg>
