<svg width="28" height="28" viewBox="0 0 28 28" fill="none" xmlns="http://www.w3.org/2000/svg">
<circle cx="14" cy="14" r="14" fill="#B5B5B5"/>
<path d="M9.27893 16.8173C9.18673 16.7251 9.14062 16.6098 9.14062 16.4713C9.14062 16.3332 9.18673 16.2138 9.27893 16.1132L12.2965 13.0705C12.3468 13.0286 12.4012 12.9951 12.4599 12.9699C12.5186 12.9448 12.5815 12.9322 12.6485 12.9322C12.7156 12.9322 12.7806 12.9448 12.8436 12.9699C12.9063 12.9951 12.9586 13.0286 13.0006 13.0705L14.6602 14.7302L17.2754 12.1401H16.4707C16.3282 12.1401 16.2089 12.092 16.1126 11.9958C16.0161 11.8992 15.9678 11.7797 15.9678 11.6372C15.9678 11.4947 16.0161 11.3752 16.1126 11.2786C16.2089 11.1824 16.3282 11.1343 16.4707 11.1343H18.4824C18.6249 11.1343 18.7443 11.1824 18.8405 11.2786C18.9371 11.3752 18.9853 11.4947 18.9853 11.6372V13.6489C18.9853 13.7914 18.9371 13.9107 18.8405 14.007C18.7443 14.1035 18.6249 14.1518 18.4824 14.1518C18.3399 14.1518 18.2206 14.1035 18.1243 14.007C18.0278 13.9107 17.9795 13.7914 17.9795 13.6489V12.8442L15.0122 15.8115C14.962 15.8617 14.9075 15.8973 14.8488 15.9181C14.7901 15.9392 14.7273 15.9498 14.6602 15.9498C14.5931 15.9498 14.5303 15.9392 14.4716 15.9181C14.4129 15.8973 14.3584 15.8617 14.3082 15.8115L12.6485 14.1518L9.97045 16.8299C9.87824 16.9221 9.76509 16.9682 9.63097 16.9682C9.49686 16.9682 9.37951 16.9179 9.27893 16.8173Z" fill="#0B292D"/>
</svg>
