<svg width="28" height="28" viewBox="0 0 28 28" fill="none" xmlns="http://www.w3.org/2000/svg">
<circle cx="14" cy="14" r="14" fill="#B5B5B5"/>
<path d="M13.956 9.93555C14.5142 9.93555 14.9618 10.3831 14.9618 10.9414C14.9618 11.4996 14.5142 11.9472 13.956 11.9472C13.3977 11.9472 12.9501 11.4996 12.9501 10.9414C12.9501 10.3831 13.4028 9.93555 13.956 9.93555ZM18.4823 15.9706V14.9648C17.3557 14.9648 16.3901 14.482 15.6659 13.6169L14.992 12.8123C14.8984 12.6988 14.7809 12.6075 14.6479 12.5449C14.5148 12.4823 14.3696 12.45 14.2225 12.4502H13.7045C13.3977 12.4502 13.1161 12.5809 12.925 12.8123L12.2511 13.6169C11.5218 14.482 10.5562 14.9648 9.42969 14.9648V15.9706C10.8228 15.9706 12.0399 15.3822 12.9501 14.3361V15.4677L10.9988 16.2472C10.6618 16.383 10.4355 16.725 10.4355 17.0821C10.4355 17.58 10.8379 17.9823 11.3358 17.9823H12.4472V17.7308C12.4472 17.3974 12.5797 17.0776 12.8155 16.8418C13.0513 16.606 13.3711 16.4735 13.7045 16.4735H15.2133C15.3541 16.4735 15.4648 16.5842 15.4648 16.725C15.4648 16.8658 15.3541 16.9765 15.2133 16.9765H13.7045C13.2871 16.9765 12.9501 17.3134 12.9501 17.7308V17.9823H16.5762C17.0741 17.9823 17.4764 17.58 17.4764 17.0821C17.4764 16.725 17.2501 16.383 16.9132 16.2472L14.9618 15.4677V14.3361C15.8721 15.3822 17.0892 15.9706 18.4823 15.9706Z" fill="#0B292D"/>
</svg>
