<svg width="28" height="28" viewBox="0 0 28 28" fill="none" xmlns="http://www.w3.org/2000/svg">
<circle cx="14" cy="14" r="14" fill="#B5B5B5"/>
<path d="M13.9563 8.92529C14.7912 8.92529 15.4651 9.59921 15.4651 10.4341C15.4651 11.2689 14.7912 11.9428 13.9563 11.9428C13.1215 11.9428 12.4475 11.2689 12.4475 10.4341C12.4475 9.59921 13.1215 8.92529 13.9563 8.92529ZM17.9797 16.9721L16.9739 14.2362C16.7978 13.7383 16.6419 13.3057 15.968 12.9487C15.279 12.5966 14.7761 12.4458 13.9563 12.4458C13.1466 12.4458 12.6437 12.5966 11.9446 12.9487C11.2808 13.3057 11.1249 13.7383 10.9388 14.2362L9.93294 16.9721C9.81726 17.5404 11.1299 18.1992 12.01 18.5764C12.6185 18.8429 13.2723 18.9837 13.9563 18.9837C14.6503 18.9837 15.2991 18.8429 15.9127 18.5764C16.7928 18.1992 18.1054 17.5404 17.9797 16.9721ZM15.6763 16.7206L13.9563 18.4808L12.2363 16.7206C12.0553 16.5295 11.9446 16.273 11.9446 15.9914C11.9446 15.4231 12.3973 14.9604 12.9505 14.9604C13.2271 14.9604 13.4836 15.076 13.6646 15.2671L13.9563 15.5639L14.248 15.2621C14.4291 15.076 14.6856 14.9604 14.9622 14.9604C15.5204 14.9604 15.968 15.4231 15.968 15.9914C15.968 16.273 15.8574 16.5345 15.6763 16.7206Z" fill="#0B292D"/>
</svg>
